/* XPM */
static char *x[] = {
/* columns rows colors chars-per-pixel */
"32 32 80 1 ",
"  c black",
". c #010101",
"X c #020202",
"o c gray1",
"O c #040404",
"+ c gray2",
"@ c #060606",
"# c #070707",
"$ c gray3",
"% c #090909",
"& c gray4",
"* c #0B0B0B",
"= c #0C0C0C",
"- c gray5",
"; c #0E0E0E",
": c #101010",
"> c #111111",
", c gray7",
"< c #131313",
"1 c #161616",
"2 c gray9",
"3 c #181818",
"4 c #1B1B1B",
"5 c #232323",
"6 c gray14",
"7 c gray16",
"8 c #2C2C2C",
"9 c #373737",
"0 c gray23",
"q c #3C3C3C",
"w c #434343",
"e c gray31",
"r c #515151",
"t c gray32",
"y c #555555",
"u c #5D5D5D",
"i c #606060",
"p c gray39",
"a c #676767",
"s c #6C6C6C",
"d c #6D6D6D",
"f c gray44",
"g c #727272",
"h c #767676",
"j c gray51",
"k c #8B8B8B",
"l c #8D8D8D",
"z c #909090",
"x c #979797",
"c c #9A9A9A",
"v c gray65",
"b c #AAAAAA",
"n c gray68",
"m c #AFAFAF",
"M c #B1B1B1",
"N c gray70",
"B c gray71",
"V c #B7B7B7",
"C c gray72",
"Z c #BCBCBC",
"A c gray",
"S c gray77",
"D c #C6C6C6",
"F c #C8C8C8",
"G c gray80",
"H c #D0D0D0",
"J c #D2D2D2",
"K c gray83",
"L c #D8D8D8",
"P c #DADADA",
"I c gray87",
"U c gray88",
"Y c #E9E9E9",
"T c gray93",
"R c #EFEFEF",
"E c gray95",
"W c #F6F6F6",
"Q c gray98",
"! c gray100",
"~ c None",
/* pixels */
"~~                            ~~",
"~                              ~",
"                                ",
"                                ",
"          ++++    ++++          ",
"         +zKJM+   cKJb+         ",
"          M!!P&   S!!J+         ",
"          ikkh+  +pkkf          ",
"        ;,111, ;; ,111,,+       ",
"       ;IETEED1MG,nWEEET3       ",
"       8!!!!!J1ZP,B!!!!!w       ",
"       p!!!!!J,ZK,Z!!!!!j       ",
"       v!!!!!J,ZP,B!!!!!S+      ",
"      &U!!!!!J,ZP,Z!!!!!E1      ",
"      5!!!!!!J,ZK,B!!!!!!9      ",
"      y!!!!!!J,MF,Z!!!!!!f      ",
"      x!!!!!!J&&;+B!!!!!!B      ",
"     +K!!!!!n6    3c!!!!!Y;     ",
"     4Q!!!!!d      r!!!!!!8     ",
"     w!!!!!!d      e!!!!!!u     ",
"     r!!!!!!s      e!!!!!!d     ",
"     r!!!!!!d      e!!!!!!d     ",
"     r!!!!!!d      e!!!!!!d     ",
"     r!!!!!!d      e!!!!!!d     ",
"     r!!!!!!s      r!!!!!!d     ",
"     8ZMBBMZq      8MnnnnMq     ",
"        +              + +      ",
"                                ",
"                                ",
"                                ",
"~                              ~",
"~~                            ~~"
};
